<svg width="68" height="68" viewBox="0 0 68 68" fill="none" xmlns="http://www.w3.org/2000/svg">
<path id="booking 1 (Traced)" fill-rule="evenodd" clip-rule="evenodd" d="M2.59332 0.234674C2.12947 0.387272 1.70721 0.675202 1.19329 1.18944C-0.120934 2.50452 0.00312921 -0.914924 0.00312921 33.9992C0.00312921 68.9135 -0.120934 65.4942 1.19329 66.8084C2.48041 68.0952 0.97704 67.9983 19.6722 67.9983C35.6866 67.9983 36.0034 67.9934 36.703 67.7317C37.6698 67.37 38.4329 66.6829 38.881 65.7703L39.2544 65.0101L39.2945 58.4693C39.3166 54.8719 39.3558 51.9284 39.3817 51.9284C39.4074 51.9284 40.286 52.3431 41.3339 52.8497C43.5678 53.9297 44.1168 54.361 44.8314 55.596C46.3826 58.2768 49.1232 59.6203 51.9179 59.0698C52.8348 58.8892 53.4889 58.5973 56.417 57.0619C58.3013 56.0738 59.9245 55.1429 60.024 54.9934C60.3698 54.4736 59.842 53.5221 59.208 53.5221C59.0415 53.5221 57.416 54.2959 55.5959 55.2416C53.7758 56.1874 51.9931 57.0315 51.6342 57.1175C49.6747 57.5876 47.544 56.5038 46.5311 54.5219C46.3456 54.1588 45.8184 53.4864 45.3597 53.0278C44.5453 52.2136 44.3341 52.0992 36.3776 48.1661C27.6299 43.8417 27.4897 43.7569 27.2862 42.6729C27.0883 41.6175 27.7264 40.3366 28.6968 39.8416C29.7306 39.3142 29.6555 39.287 35.2295 42.2122C36.3933 42.8229 36.5574 42.8745 36.9259 42.746C37.3736 42.5901 37.5941 42.2824 37.5941 41.8137C37.5941 41.6463 35.3697 37.2647 32.6512 32.0766C27.8973 23.0048 27.7082 22.6161 27.7071 21.9135C27.705 20.5433 28.696 19.4149 30.0124 19.2883C30.7355 19.2188 31.4932 19.5493 31.9121 20.1168C32.038 20.2873 34.0614 24.0932 36.4087 28.5743C38.7559 33.0554 40.8003 36.8562 40.9516 37.0206C41.4073 37.5154 42.2347 37.3166 42.5127 36.6455C42.6539 36.305 42.5942 36.1265 41.8409 34.6375C41.3862 33.7386 40.9674 32.9433 40.91 32.8703C40.7017 32.6051 40.6308 31.7713 40.7719 31.2475C40.9574 30.5585 41.8966 29.6687 42.5717 29.542C43.2021 29.4238 44.0305 29.5386 44.4288 29.7996C44.6059 29.9156 45.167 30.8112 45.7051 31.8369C46.2332 32.8435 46.7555 33.7717 46.8657 33.8996C47.1287 34.2045 47.8439 34.198 48.2279 33.8871C48.7131 33.4942 48.5953 33.0164 47.5058 30.9596C46.9491 29.9086 46.4937 28.8966 46.4937 28.7106C46.4937 28.1406 47.0029 27.2773 47.5717 26.8833C48.268 26.4008 49.392 26.2978 50.0738 26.6542C50.4539 26.8527 50.6976 27.2097 51.4937 28.7338C52.0223 29.7457 52.5574 30.687 52.6828 30.8256C53.1991 31.396 54.3306 30.9634 54.3306 30.1955C54.3306 30.0027 53.8823 28.9931 53.3344 27.9521C52.2513 25.8944 52.1735 25.546 52.6065 24.6973C53.342 23.256 55.5451 22.9437 56.6171 24.1289C56.9745 24.5242 60.7586 31.8077 61.6228 33.7637C62.5985 35.9725 63.4484 38.4146 64.2283 41.2511C64.5615 42.4628 65.0773 44.0233 65.3745 44.7189C65.7046 45.4913 65.9416 46.2783 65.9836 46.7409C66.1148 48.1876 65.361 49.8372 64.2043 50.6347C63.3125 51.2498 63.0974 51.4868 63.0974 51.8546C63.0974 52.3164 63.6333 52.8913 64.0636 52.8913C64.9426 52.8913 66.6637 51.3113 67.3342 49.8886C68.2708 47.9014 68.2222 46.1065 67.17 43.8271C66.9172 43.2792 66.5206 42.1138 66.2888 41.2373C64.8776 35.9014 63.8766 33.4833 60.1421 26.3903C58.6733 23.6006 58.3077 23.0071 57.749 22.5048C56.8795 21.7232 55.6004 21.309 54.4331 21.4309C52.8184 21.5997 51.3421 22.6035 50.744 23.9394L50.498 24.4886L49.1268 24.496C47.9483 24.5022 47.6622 24.5491 47.0914 24.8296C46.2606 25.2379 45.309 26.18 44.9469 26.953L44.6703 27.5433L43.2907 27.5506C42.0561 27.5571 41.8312 27.5971 41.152 27.9306C40.7251 28.1402 40.1599 28.5679 39.8605 28.9079L39.3283 29.5126L39.2914 16.2504L39.2544 2.98821L38.881 2.22801C38.4329 1.31548 37.6698 0.628321 36.703 0.266681C36.0083 0.00677326 35.6809 0 23.9222 0C12.3294 0 11.8424 0.00982789 11.5475 0.248486C11.121 0.59379 11.121 1.39835 11.5475 1.74365C11.8423 1.98231 12.3267 1.99214 23.8076 1.99214C37.1222 1.99214 36.3619 1.93955 36.961 2.90268C37.2241 3.32581 37.2678 3.5994 37.3085 5.07995L37.3551 6.77327H19.6753H1.99558L1.99585 5.14636C1.99598 3.34427 2.14674 2.83906 2.83507 2.33359C3.16103 2.09427 3.46003 2.04991 5.13861 1.99214C6.96608 1.92919 7.08072 1.90927 7.32087 1.61217C7.66583 1.18572 7.6394 0.716904 7.24835 0.326047C6.93288 0.0104919 6.86354 0.000265619 5.08986 0.00823417C3.76607 0.0140778 3.0731 0.0770294 2.59332 0.234674ZM37.2961 17.3259C37.3171 22.5275 37.2828 25.7708 37.2076 25.6929C37.14 25.623 36.5718 24.5915 35.9447 23.4007L34.8046 21.2355V17.9157C34.8046 15.3161 34.764 14.518 34.6172 14.2372C34.336 13.6989 33.7118 13.159 33.2015 13.0127C32.9183 12.9315 27.7766 12.8836 19.5301 12.8854C6.83259 12.8882 6.29064 12.8983 5.7568 13.1405C5.40719 13.2994 5.06236 13.6025 4.82699 13.958L4.45294 14.5232V18.7828C4.45294 22.9969 4.45626 23.0477 4.75845 23.5338C4.92661 23.8039 5.28525 24.1625 5.55543 24.3307L6.0469 24.6361L16.2966 24.6725L26.5463 24.7089L29.8295 30.9809C31.6352 34.4305 33.384 37.7561 33.7158 38.371L34.3191 39.4888L33.0011 38.7888C32.2762 38.4037 31.3898 37.9865 31.0314 37.8615L30.3796 37.6346L30.1521 36.5107C29.6834 34.1957 28.8712 32.7142 27.1007 30.9446C25.2476 29.0921 23.3682 28.1804 20.7718 27.8741C15.5922 27.2634 10.6416 30.6853 9.22061 35.8585C8.85294 37.1967 8.87817 39.9878 9.27015 41.3434C10.3414 45.0486 13.127 47.8338 16.8328 48.9049C18.1819 49.2948 20.9753 49.3216 22.3186 48.9575C23.9161 48.5245 26.4641 47.0789 27.2058 46.1846C27.3575 46.0017 27.6898 46.1354 30.0617 47.3335C31.5379 48.0793 33.7785 49.1763 35.0407 49.7715L37.3356 50.8535L37.2988 52.8186L37.262 54.7838L19.6288 54.8176L1.99558 54.8512V31.8078V8.76448L19.6288 8.79808L37.262 8.83182L37.2961 17.3259ZM32.7829 16.5604L32.8203 18.1797L31.9974 17.7557C31.2663 17.3788 31.0551 17.3323 30.1006 17.3381C29.2987 17.343 28.8672 17.4166 28.3978 17.6284C26.6121 18.4347 25.6148 19.9343 25.6142 21.8139L25.614 22.7104H16.1558C8.97673 22.7104 6.65938 22.672 6.53837 22.551C6.31057 22.3232 6.31123 15.2611 6.53904 15.0333C6.66217 14.9102 9.70318 14.8811 19.7224 14.9072L32.7458 14.941L32.7829 16.5604ZM21.1231 29.9373C23.6391 30.3889 25.8114 31.8825 27.1278 34.0656C27.6762 34.9748 28.1488 36.2846 28.2501 37.1756L28.3192 37.7842L27.5714 38.1687C26.638 38.6486 25.8662 39.5116 25.498 40.4873C25.1283 41.467 25.1831 43.0654 25.6166 43.9516C25.7752 44.2758 25.905 44.5808 25.905 44.6292C25.905 44.6778 25.5497 44.9967 25.1153 45.3379C19.476 49.7676 11.3196 46.1102 10.9324 38.9779C10.7374 35.3836 12.7071 32.1356 16.0092 30.6068C17.6872 29.83 19.3281 29.6151 21.1231 29.9373ZM20.8945 37.3481L17.5452 40.6969L16.297 39.473C15.1948 38.3922 14.9934 38.2491 14.5755 38.2491C14.2226 38.2491 14.0325 38.3379 13.8272 38.599C13.3305 39.2303 13.4453 39.4838 14.9133 40.9989C16.4199 42.5535 17.1721 43.163 17.5847 43.163C17.7661 43.163 19.1701 41.8543 21.7489 39.2814C25.2642 35.7739 25.6393 35.3578 25.6393 34.9651C25.6393 34.4005 25.239 33.9992 24.6761 33.9992C24.2885 33.9992 23.8989 34.3442 20.8945 37.3481ZM37.3026 60.727C37.2632 64.4971 37.2531 64.6261 36.961 65.0957C36.3541 66.0713 37.593 66.0062 19.6419 66.0059C4.55854 66.0058 3.4939 65.9909 3.06765 65.7735C2.81714 65.6459 2.48838 65.3727 2.33709 65.1667C2.07554 64.8105 2.06014 64.5956 2.02321 60.8172L1.98442 56.8424H19.6637H37.3431L37.3026 60.727ZM15.9477 58.8576C14.7992 59.1871 14.1582 60.1149 14.1645 61.4385C14.1693 62.4583 14.6101 63.2822 15.3833 63.7167C15.8957 64.0046 16.0283 64.0141 19.5718 64.0141C21.8415 64.0141 23.3731 63.9603 23.605 63.8724C24.4986 63.534 25.1003 62.5364 25.1051 61.3858C25.1101 60.185 24.3606 59.1412 23.2775 58.8404C22.6483 58.6657 16.5669 58.6799 15.9477 58.8576ZM22.9985 60.9455C23.2661 61.1621 23.2909 61.2502 23.1761 61.5764L23.0429 61.9555L19.7417 61.9911C16.2487 62.0287 16.0756 62.0016 16.0756 61.4175C16.0756 60.728 16.2415 60.6938 19.5904 60.6938C22.4327 60.6938 22.7132 60.7146 22.9985 60.9455Z" fill="#E5745D"/>
</svg>
