<svg width="167" height="167" viewBox="0 0 167 167" fill="none" xmlns="http://www.w3.org/2000/svg">
<g id="Frame" clip-path="url(#clip0_403_510)">
<g id="Group">
<g id="Group_2" opacity="0.3">
<path id="Vector" d="M83.5 167C37.4561 167 0 129.544 0 83.5C0 37.4561 37.4561 0 83.5 0C129.544 0 167 37.4561 167 83.5C167 129.544 129.544 167 83.5 167ZM83.5 9.8007C42.8902 9.8007 9.8007 42.8417 9.8007 83.5C9.8007 124.11 42.8417 157.199 83.5 157.199C124.158 157.199 157.199 124.158 157.199 83.5C157.199 42.8902 124.11 9.8007 83.5 9.8007Z" fill="#C4C4C4"/>
</g>
<g id="Group_3">
<path id="Vector_2" d="M83.5 167C37.4561 167 0 129.544 0 83.5C0 37.4561 37.4561 0 83.5 0C86.217 0 88.4004 2.18332 88.4004 4.90035C88.4004 7.61737 86.217 9.8007 83.5 9.8007C42.8902 9.8007 9.8007 42.8417 9.8007 83.5C9.8007 124.11 42.8417 157.199 83.5 157.199C104.46 157.199 124.498 148.223 138.471 132.601C140.266 130.563 143.372 130.417 145.409 132.212C147.447 134.008 147.593 137.113 145.798 139.15C129.981 156.811 107.274 167 83.5 167Z" fill="#E5745D"/>
</g>
</g>
</g>
<defs>
<clipPath id="clip0_403_510">
<rect width="167" height="167" fill="white"/>
</clipPath>
</defs>
</svg>
