<svg width="167" height="167" viewBox="0 0 167 167" fill="none" xmlns="http://www.w3.org/2000/svg">
<g id="Frame" clip-path="url(#clip0_403_522)">
<g id="Group">
<g id="Group_2" opacity="0.3">
<path id="Vector" d="M83.5 167C37.4561 167 0 129.544 0 83.5C0 37.4561 37.4561 0 83.5 0C129.544 0 167 37.4561 167 83.5C167 129.544 129.544 167 83.5 167ZM83.5 9.8007C42.8902 9.8007 9.8007 42.8417 9.8007 83.5C9.8007 124.11 42.8417 157.199 83.5 157.199C124.11 157.199 157.199 124.158 157.199 83.5C157.199 42.8902 124.11 9.8007 83.5 9.8007Z" fill="#C4C4C4"/>
</g>
<g id="Group_3">
<path id="Vector_2" d="M28.3832 144.439C27.1217 144.439 25.9088 143.954 24.9384 143.032C8.87885 127.215 0 106.061 0 83.5C0 37.4561 37.4561 0 83.5 0C86.217 0 88.4004 2.18332 88.4004 4.90035C88.4004 7.61737 86.217 9.8007 83.5 9.8007C42.8902 9.8007 9.8007 42.8417 9.8007 83.5C9.8007 103.393 17.6121 122.072 31.828 136.045C33.7687 137.938 33.7687 141.043 31.8765 142.983C30.9062 143.954 29.6447 144.439 28.3832 144.439Z" fill="#E5745D"/>
</g>
</g>
</g>
<defs>
<clipPath id="clip0_403_522">
<rect width="167" height="167" fill="white"/>
</clipPath>
</defs>
</svg>
