<svg width="167" height="167" viewBox="0 0 167 167" fill="none" xmlns="http://www.w3.org/2000/svg">
<g id="Frame" clip-path="url(#clip0_403_488)">
<g id="Group">
<g id="Group_2" opacity="0.3">
<path id="Vector" d="M83.5 167C37.4561 167 0 129.544 0 83.5C0 37.4561 37.4561 0 83.5 0C129.544 0 167 37.4561 167 83.5C167 129.544 129.544 167 83.5 167ZM83.5 9.8007C42.8902 9.8007 9.8007 42.8417 9.8007 83.5C9.8007 124.11 42.8417 157.199 83.5 157.199C124.11 157.199 157.199 124.158 157.199 83.5C157.199 42.8902 124.11 9.8007 83.5 9.8007Z" fill="#C4C4C4"/>
</g>
<g id="Group_3">
<path id="Vector_2" d="M83.5 167C37.4561 167 0 129.544 0 83.5C0 37.4561 37.4561 0 83.5 0C86.217 0 88.4003 2.18332 88.4003 4.90035C88.4003 7.61737 86.217 9.8007 83.5 9.8007C42.8902 9.8007 9.8007 42.8417 9.8007 83.5C9.8007 124.11 42.8417 157.199 83.5 157.199C124.11 157.199 157.199 124.158 157.199 83.5C157.199 80.783 159.383 78.5997 162.1 78.5997C164.817 78.5997 167 80.783 167 83.5C167 129.544 129.544 167 83.5 167Z" fill="#E5745D"/>
</g>
</g>
</g>
<defs>
<clipPath id="clip0_403_488">
<rect width="167" height="167" fill="white"/>
</clipPath>
</defs>
</svg>
