<svg width="167" height="167" viewBox="0 0 167 167" fill="none" xmlns="http://www.w3.org/2000/svg">
<g id="Group">
<g id="Group_2" opacity="0.3">
<path id="Vector" d="M83.5 167C37.4561 167 0 129.544 0 83.5C0 37.4561 37.4561 0 83.5 0C129.544 0 167 37.4561 167 83.5C167 129.544 129.544 167 83.5 167ZM83.5 9.8007C42.8902 9.8007 9.8007 42.8417 9.8007 83.5C9.8007 124.158 42.8902 157.199 83.5 157.199C124.11 157.199 157.199 124.158 157.199 83.5C157.199 42.8417 124.11 9.8007 83.5 9.8007Z" fill="#C4C4C4"/>
</g>
<g id="Group_3">
<path id="Vector_2" d="M83.5 167C37.4561 167 0 129.544 0 83.5C0 37.4561 37.4561 0 83.5 0C86.217 0 88.4004 2.18332 88.4004 4.90035C88.4004 7.61737 86.217 9.8007 83.5 9.8007C42.8902 9.8007 9.8007 42.8417 9.8007 83.5C9.8007 124.158 42.8902 157.199 83.5 157.199C124.11 157.199 157.199 124.158 157.199 83.5C157.199 63.0253 149 44.0061 134.153 29.9358C132.164 28.0921 132.115 24.9869 133.959 22.9977C135.803 21.0084 138.908 20.9599 140.897 22.8036C157.733 38.7661 167.049 60.3083 167.049 83.4515C167 129.544 129.544 167 83.5 167Z" fill="#E5745D"/>
</g>
</g>
</svg>
